#!OML:ASF G:\JayActor3\Patient Classification 1\Patient 1\Session 5\male.ASF
:FULLY-SPECIFIED
:DEGREES
703
root -8.78299 17.8855 -6.58938 968.015 -92.831 -952.835
lowerback 19.5104 -1.59009 4.19147
upperback 7.50045 -1.83119 -1.04541
thorax -2.95601 -1.02927 -3.08685
lowerneck 6.31588 -0.0620173 1.50551
upperneck -17.6725 0.301417 2.70277
head -6.40824 -0.297177 0.602809
rclavicle 1.03368e-014 1.98785e-014
rhumerus -31.373 -3.58666 -89.7859
rradius 26.2685
rwrist 6.90801
rhand -22.602 -8.50587
rfingers 7.12502
rthumb 3.82749 -38.4512
lclavicle 1.03368e-014 1.98785e-014
lhumerus -34.9838 5.49126 81.9823
lradius 27.6719
lwrist 20.4744
lhand -20.429 15.6325
lfingers 7.12502
lthumb 5.92566 45.5297
rfemur -33.9865 0.665574 29.3465
rtibia 42.8476
rfoot 1.57113 -11.7142
rtoes -3.49314
lfemur -31.1457 2.76699 -15.1264
ltibia 52.5994
lfoot 11.1715 -4.39343
ltoes -25.5484
704
root -8.93822 17.9135 -6.58844 967.106 -92.7924 -952.096
lowerback 19.5716 -1.53323 4.10551
upperback 7.56752 -1.77891 -1.06911
thorax -2.90997 -1.00498 -3.07453
lowerneck 6.28685 -0.0965524 1.53725
upperneck -17.6064 0.265786 2.75466
head -6.38208 -0.318733 0.616181
rclavicle -3.18055e-015 -7.15625e-015
rhumerus -31.4209 -3.77451 -89.6374
rradius 26.0971
rwrist 7.18554
rhand -22.522 -8.49615
rfingers 7.12502
rthumb 3.90471 -38.4401
lclavicle -3.18055e-015 -7.15625e-015
lhumerus -35.1135 5.52633 81.9393
lradius 27.5236
lwrist 20.2879
lhand -20.2941 15.7382
lfingers 7.12502
lthumb 6.05586 45.6316
rfemur -32.9587 0.625698 29.2907
rtibia 42.3621
rfoot 1.52574 -11.8628
rtoes -3.36968
lfemur -32.1937 2.78039 -15.1657
ltibia 52.2026
lfoot 11.2407 -4.23864
ltoes -25.4398
705
root -9.09429 17.9389 -6.58713 967.146 -92.7865 -952.291
lowerback 19.6154 -1.47312 4.06054
upperback 7.62426 -1.71414 -1.07857
thorax -2.86536 -0.974055 -3.0733
lowerneck 6.23796 -0.133748 1.57234
upperneck -17.5152 0.225275 2.80268
head -6.34443 -0.34178 0.627862
rclavicle 6.36111e-015 3.97569e-014
rhumerus -31.4717 -3.95699 -89.4821
rradius 25.9428
rwrist 7.45681
rhand -22.4619 -8.47917
rfingers 7.12502
rthumb 3.96278 -38.4221
lclavicle 6.36111e-015 3.97569e-014
lhumerus -35.2523 5.54911 81.907
lradius 27.3994
lwrist 20.1578
lhand -20.1889 15.7597
lfingers 7.12502
lthumb 6.15744 45.6502
rfemur -31.9501 0.552948 29.3056
rtibia 41.8731
rfoot 1.51428 -12.0027
rtoes -3.18921
lfemur -33.25 2.87206 -15.1695
ltibia 51.7646
lfoot 11.4364 -4.12143
ltoes -25.3796
706
root -9.25172 17.9626 -6.58532 968.022 -92.8172 -953.303
lowerback 19.6347 -1.41499 4.06297
upperback 7.67123 -1.64264 -1.07413
thorax -2.8185 -0.939064 -3.08599
lowerneck 6.17812 -0.172264 1.60816
upperneck -17.4136 0.180996 2.84254
head -6.30156 -0.365699 0.636949
rclavicle -9.54166e-015 -1.98785e-015
rhumerus -31.5239 -4.11748 -89.33
rradius 25.8082
rwrist 7.68976
rhand -22.4229 -8.47451
rfingers 7.12502
rthumb 4.00037 -38.4167
lclavicle -9.54166e-015 -1.98785e-015
lhumerus -35.4001 5.55981 81.8844
lradius 27.2995
lwrist 20.0924
lhand -20.0796 15.7577
lfingers 7.12502
lthumb 6.26295 45.6451
rfemur -30.9518 0.441489 29.3883
rtibia 41.3621
rfoot 1.53619 -12.1268
rtoes -2.98692
lfemur -34.3099 3.0373 -15.1424
ltibia 51.2767
lfoot 11.7071 -4.03216
ltoes -25.5142
707
root -9.41042 17.9852 -6.5829 969.619 -92.8841 -955.015
lowerback 19.6311 -1.35939 4.1135
upperback 7.70813 -1.56499 -1.05695
thorax -2.77055 -0.900216 -3.11402
lowerneck 6.11776 -0.210492 1.63769
upperneck -17.3149 0.134749 2.87396
head -6.25953 -0.38953 0.644495
rclavicle 1.98785e-015 -1.47101e-014
rhumerus -31.577 -4.25615 -89.185
rradius 25.697
rwrist 7.85589
rhand -22.4168 -8.47291
rfingers 7.12502
rthumb 4.00632 -38.415
lclavicle 1.98785e-015 -1.47101e-014
lhumerus -35.5537 5.55865 81.8693
lradius 27.2145
lwrist 20.0892
lhand -19.9614 15.7235
lfingers 7.12502
lthumb 6.37708 45.6075
rfemur -29.9581 0.295555 29.5306
rtibia 40.8151
rfoot 1.59208 -12.2358
rtoes -2.75549
lfemur -35.3643 3.27229 -15.0929
ltibia 50.7248
lfoot 12.0689 -3.99878
ltoes -25.6995
708
root -9.57118 18.0076 -6.57966 971.528 -92.9772 -957.024
lowerback 19.6047 -1.31089 4.20117
upperback 7.7381 -1.48959 -1.03259
thorax -2.71872 -0.861662 -3.15524
lowerneck 6.06375 -0.245649 1.66188
upperneck -17.2236 0.0899847 2.89139
head -6.22094 -0.411349 0.648392
rclavicle -3.97569e-016 1.59028e-015
rhumerus -31.6296 -4.37008 -89.0502
rradius 25.6056
rwrist 7.94864
rhand -22.4267 -8.48462
rfingers 7.12502
rthumb 3.99673 -38.4269
lclavicle -3.97569e-016 1.59028e-015
lhumerus -35.7125 5.55798 81.8546
lradius 27.1365
lwrist 20.1316
lhand -19.8317 15.6806
lfingers 7.12502
lthumb 6.50228 45.5608
rfemur -28.949 0.114667 29.7061
rtibia 40.2218
rfoot 1.69395 -12.3204
rtoes -2.60476
lfemur -36.3909 3.55952 -15.0452
ltibia 50.0918
lfoot 12.5 -3.99752
ltoes -25.8705
709
root -9.73335 18.0294 -6.57561 973.688 -93.0925 -959.27
lowerback 19.5618 -1.26779 4.31922
upperback 7.75972 -1.41534 -1.0022
thorax -2.66746 -0.823032 -3.20709
lowerneck 6.02259 -0.275898 1.68017
upperneck -17.1453 0.0494788 2.89439
head -6.18872 -0.429922 0.648471
rclavicle -7.15625e-015 -3.02153e-014
rhumerus -31.6816 -4.46568 -88.9235
rradius 25.5326
rwrist 7.98574
rhand -22.4492 -8.50856
rfingers 7.12502
rthumb 3.97503 -38.4512
lclavicle -7.15625e-015 -3.02153e-014
lhumerus -35.8736 5.56433 81.8356
lradius 27.0588
lwrist 20.203
lhand -19.6941 15.6394
lfingers 7.12502
lthumb 6.63515 45.5154
rfemur -27.9295 -0.0806559 29.9036
rtibia 39.5839
rfoot 1.82234 -12.3842
rtoes -2.48304
lfemur -37.385 3.89162 -15.0061
ltibia 49.3678
lfoot 12.9887 -4.01072
ltoes -26.0167
710
root -9.8967 18.0502 -6.57076 975.846 -93.2219 -961.503
lowerback 19.5078 -1.23154 4.45657
upperback 7.77497 -1.34628 -0.968133
thorax -2.61767 -0.786504 -3.26484
lowerneck 5.99837 -0.298959 1.69197
upperneck -17.0846 0.0163702 2.88182
head -6.16507 -0.443748 0.644316
rclavicle -1.03368e-014 -1.86858e-014
rhumerus -31.7313 -4.5459 -88.8006
rradius 25.4746
rwrist 7.9946
rhand -22.4581 -8.53655
rfingers 7.12502
rthumb 3.96643 -38.4794
lclavicle -1.03368e-014 -1.86858e-014
lhumerus -36.0327 5.59014 81.8082
lradius 26.974
lwrist 20.2773
lhand -19.5565 15.6212
lfingers 7.12502
lthumb 6.76791 45.493
rfemur -26.8986 -0.280228 30.1058
rtibia 38.9088
rfoot 1.97354 -12.4368
rtoes -2.42587
lfemur -38.3403 4.25256 -14.991
ltibia 48.5489
lfoot 13.5251 -4.0205
ltoes -26.1042
711
root -10.061 18.0692 -6.56508 977.887 -93.3582 -963.618
lowerback 19.4502 -1.20285 4.60557
upperback 7.78535 -1.28479 -0.933423
thorax -2.57177 -0.753449 -3.32678
lowerneck 5.99595 -0.314278 1.70369
upperneck -17.0417 -0.00783914 2.85174
head -6.15093 -0.452365 0.634182
rclavicle -2.0276e-014 -2.8625e-014
rhumerus -31.7806 -4.61398 -88.6832
rradius 25.4277
rwrist 7.98591
rhand -22.4737 -8.55938
rfingers 7.12502
rthumb 3.95134 -38.5025
lclavicle -2.0276e-014 -2.8625e-014
lhumerus -36.1908 5.64196 81.7659
lradius 26.8818
lwrist 20.333
lhand -19.4203 15.6275
lfingers 7.12502
lthumb 6.89939 45.495
rfemur -25.8555 -0.465198 30.2991
rtibia 38.2105
rfoot 2.11837 -12.4943
rtoes -2.35685
lfemur -39.2488 4.62953 -15.009
ltibia 47.6393
lfoot 14.1065 -4.02279
ltoes -26.1711
712
root -10.2259 18.0861 -6.55882 979.676 -93.4909 -965.479
lowerback 19.3907 -1.18069 4.75389
upperback 7.79411 -1.23207 -0.900005
thorax -2.52715 -0.724615 -3.38771
lowerneck 5.99733 -0.325026 1.71443
upperneck -17.0091 -0.0269439 2.81419
head -6.14073 -0.458183 0.621571
rclavicle -7.95139e-016 -5.56597e-015
rhumerus -31.8256 -4.67402 -88.5692
rradius 25.3891
rwrist 7.98094
rhand -22.494 -8.57101
rfingers 7.12502
rthumb 3.93178 -38.5145
lclavicle -7.95139e-016 -5.56597e-015
lhumerus -36.3395 5.72804 81.7066
lradius 26.7771
lwrist 20.3466
lhand -19.2952 15.6559
lfingers 7.12502
lthumb 7.02016 45.5195
rfemur -24.8086 -0.631151 30.4701
rtibia 37.5047
rfoot 2.26255 -12.5565
rtoes -2.24461
lfemur -40.1133 5.01121 -15.0734
ltibia 46.6463
lfoot 14.7308 -4.007
ltoes -26.2188
713
root -10.3914 18.1003 -6.55232 981.225 -93.614 -967.107
lowerback 19.3349 -1.16193 4.89318
upperback 7.80295 -1.18557 -0.869849
thorax -2.48468 -0.698945 -3.44551
lowerneck 5.99583 -0.331391 1.72784
upperneck -16.98 -0.0402208 2.77446
head -6.13119 -0.461305 0.607442
rclavicle 1.98785e-015 -5.1684e-015
rhumerus -31.8677 -4.73085 -88.4593
rradius 25.357
rwrist 7.99859
rhand -22.5153 -8.56661
rfingers 7.12502
rthumb 3.91115 -38.5105
lclavicle 1.98785e-015 -5.1684e-015
lhumerus -36.4779 5.83852 81.631
lradius 26.6632
lwrist 20.3205
lhand -19.195 15.682
lfingers 7.12502
lthumb 7.11688 45.5423
rfemur -23.758 -0.766078 30.6152
rtibia 36.8043
rfoot 2.39321 -12.6372
rtoes -2.09962
lfemur -40.9306 5.39213 -15.1879
ltibia 45.5798
lfoot 15.3925 -3.97139
ltoes -26.2667
714
root -10.5573 18.1117 -6.54576 982.556 -93.7237 -968.525
lowerback 19.2893 -1.14652 5.01568
upperback 7.81344 -1.14645 -0.842477
thorax -2.44618 -0.677265 -3.49496
lowerneck 5.98747 -0.332096 1.74418
upperneck -16.9527 -0.0458734 2.73391
head -6.12111 -0.460948 0.59203
rclavicle 3.18055e-015 -9.14409e-015
rhumerus -31.9021 -4.78641 -88.353
rradius 25.3256
rwrist 8.05468
rhand -22.5327 -8.55165
rfingers 7.12502
rthumb 3.89434 -38.4958
lclavicle 3.18055e-015 -9.14409e-015
lhumerus -36.6038 5.97478 81.5407
lradius 26.5398
lwrist 20.2596
lhand -19.1399 15.6936
lfingers 7.12502
lthumb 7.17011 45.5521
rfemur -22.7072 -0.868222 30.7333
rtibia 36.1193
rfoot 2.50417 -12.7365
rtoes -1.94488
lfemur -41.6997 5.76705 -15.3522
ltibia 44.4497
lfoot 16.0868 -3.93542
ltoes -26.3667
715
root -10.7235 18.1201 -6.53918 983.743 -93.8158 -969.81
lowerback 19.2552 -1.13198 5.11618
upperback 7.82562 -1.11234 -0.818765
thorax -2.41206 -0.658527 -3.53457
lowerneck 5.97735 -0.326869 1.76238
upperneck -16.9312 -0.0428344 2.69623
head -6.1126 -0.456921 0.576656
rclavicle -9.14409e-015 -1.66979e-014
rhumerus -31.931 -4.83364 -88.2536
rradius 25.2967
rwrist 8.13076
rhand -22.5505 -8.52632
rfingers 7.12502
rthumb 3.8772 -38.4708
lclavicle -9.14409e-015 -1.66979e-014
lhumerus -36.7204 6.12707 81.4384
lradius 26.4134
lwrist 20.1679
lhand -19.1181 15.6874
lfingers 7.12502
lthumb 7.19116 45.5452
rfemur -21.656 -0.954098 30.827
rtibia 35.4566
rfoot 2.6056 -12.8468
rtoes -1.8332
lfemur -42.4184 6.1359 -15.5661
ltibia 43.265
lfoot 16.8303 -3.88747
ltoes -26.4758
716
root -10.8901 18.1252 -6.53264 984.893 -93.8921 -971.07
lowerback 19.2359 -1.11612 5.19496
upperback 7.841 -1.08033 -0.798397
thorax -2.3822 -0.641368 -3.56477
lowerneck 5.9599 -0.316797 1.78019
upperneck -16.9135 -0.0324858 2.66566
head -6.10407 -0.450049 0.563108
rclavicle 0 2.14687e-014
rhumerus -31.9503 -4.88048 -88.1599
rradius 25.2685
rwrist 8.23255
rhand -22.5556 -8.49856
rfingers 7.12502
rthumb 3.87223 -38.4431
lclavicle 0 2.14687e-014
lhumerus -36.8277 6.27858 81.3326
lradius 26.292
lwrist 20.0643
lhand -19.1382 15.6662
lfingers 7.12502
lthumb 7.17172 45.5246
rfemur -20.6037 -1.02405 30.9019
rtibia 34.8196
rfoot 2.68499 -12.9635
rtoes -1.8903
lfemur -43.0833 6.49735 -15.8186
ltibia 42.0328
lfoot 17.6357 -3.82846
ltoes -26.5706
717
root -11.0574 18.127 -6.52572 986.097 -93.9572 -972.396
lowerback 19.2295 -1.09942 5.2595
upperback 7.85793 -1.04959 -0.780707
thorax -2.35732 -0.625276 -3.58932
lowerneck 5.94994 -0.303176 1.79671
upperneck -16.9086 -0.016324 2.64027
head -6.10089 -0.441083 0.551126
rclavicle -1.07344e-014 -3.89618e-014
rhumerus -31.9634 -4.91451 -88.0766
rradius 25.2388
rwrist 8.33932
rhand -22.5662 -8.47113
rfingers 7.12502
rthumb 3.86204 -38.4159
lclavicle -1.07344e-014 -3.89618e-014
lhumerus -36.9328 6.42087 81.2297
lradius 26.1845
lwrist 19.9641
lhand -19.1973 15.6411
lfingers 7.12502
lthumb 7.11473 45.5015
rfemur -19.5528 -1.09873 30.9621
rtibia 34.2084
rfoot 2.73915 -13.0815
rtoes -1.91366
lfemur -43.6924 6.85327 -16.1015
ltibia 40.7573
lfoot 18.5002 -3.79603
ltoes -26.7049
